<svg width="50" height="50" viewBox="0 0 50 50" fill="none" xmlns="http://www.w3.org/2000/svg">
    <path d="M34.1954 19C32.1157 19 29.8449 20.0871 27.4489 22.2353C26.3151 23.2447 25.3198 24.335 24.5947 25.2053C24.5947 25.2053 25.7614 26.4962 27.0369 27.8809C27.729 27.0397 28.7244 25.9074 29.8746 24.8785C32.0037 22.9665 33.3879 22.5782 34.1921 22.5782C37.1847 22.5782 39.6137 24.9885 39.6137 27.9747C39.6137 30.9285 37.188 33.3388 34.1921 33.3712C34.0504 33.3712 33.8757 33.355 33.6714 33.3097C34.5382 33.6979 35.484 33.9794 36.3673 33.9794C41.8515 33.9794 42.9227 30.3397 42.9853 30.0776C43.1435 29.4079 43.2391 28.7091 43.2391 27.9941C43.2259 23.0279 39.1753 19 34.1954 19Z" fill="url(#paint0_linear_1957_881)"/>
    <path d="M15.047 36.93C17.1266 36.93 19.3974 35.8429 21.7935 33.6947C22.9272 32.6853 23.9226 31.595 24.6476 30.7247C24.6476 30.7247 23.4809 29.4338 22.2054 28.0491C21.5133 28.8903 20.518 30.0226 19.3678 31.0514C17.2387 32.9473 15.838 33.3517 15.0503 33.3517C12.0511 33.3517 9.62538 30.9414 9.62538 27.9553C9.62538 25.0014 12.0511 22.5911 15.047 22.5588C15.1887 22.5588 15.3634 22.575 15.5677 22.6203C14.7009 22.232 13.755 21.9506 12.8717 21.9506C7.38753 21.9538 6.3164 25.5935 6.25378 25.8588C6.09558 26.5253 6 27.2273 6 27.9423C6 32.902 10.0505 36.93 15.047 36.93Z" fill="url(#paint1_linear_1957_881)"/>
    <path fill-rule="evenodd" clip-rule="evenodd" d="M19.1434 24.9562C18.5436 24.3965 15.6136 22.1091 12.8089 22.0315C7.80915 21.9118 6.33923 25.4059 6.21069 25.8556C7.16977 21.9376 10.7391 19.0162 14.9808 19C18.4414 19 21.9349 22.2612 24.5189 25.2021C24.5221 25.1956 24.5287 25.1924 24.532 25.1891C24.532 25.1891 25.6987 26.48 26.9742 27.8647C26.9742 27.8647 28.4244 29.5115 29.9701 30.9576C30.5699 31.5174 33.4834 33.7724 36.2881 33.85C41.4263 33.9891 42.8435 30.3041 42.9226 30.0259C41.9767 33.96 38.4008 36.8976 34.1459 36.9138C30.6853 36.9138 27.1884 33.6526 24.5947 30.7085C24.5881 30.715 24.5848 30.7215 24.5815 30.7247C24.5815 30.7247 23.4148 29.4338 22.1393 28.0491C22.136 28.0491 20.6891 26.4024 19.1434 24.9562ZM6.2041 25.8879C6.2041 25.8815 6.2074 25.8685 6.21069 25.8556C6.21069 25.8653 6.2074 25.8782 6.2041 25.8879Z" fill="#29A9E0"/>
    <defs>
        <linearGradient id="paint0_linear_1957_881" x1="29.4308" y1="20.328" x2="41.7106" y2="33.2157" gradientUnits="userSpaceOnUse">
            <stop offset="0.21" stop-color="#EF5A24"/>
            <stop offset="0.6841" stop-color="#F9AE3B"/>
        </linearGradient>
        <linearGradient id="paint1_linear_1957_881" x1="19.8068" y1="35.604" x2="7.527" y2="22.7163" gradientUnits="userSpaceOnUse">
            <stop offset="0.21" stop-color="#EB1E79"/>
            <stop offset="0.8929" stop-color="#522783"/>
        </linearGradient>
    </defs>
</svg>


