<svg width="22" height="22" viewBox="0 0 22 22" fill="none" xmlns="http://www.w3.org/2000/svg">
    <path d="M20.665 6.8852C20.1357 5.6338 19.3781 4.51009 18.4133 3.54526C17.4485 2.58041 16.3248 1.82284 15.0734 1.29355C13.7774 0.745414 12.4011 0.467468 10.9839 0.467468C9.56559 0.467468 8.18929 0.74539 6.89331 1.29355C5.64194 1.82284 4.51823 2.58043 3.55338 3.54526C2.58855 4.51009 1.83095 5.63377 1.30166 6.88517C0.753484 8.18117 0.475586 9.55742 0.475586 10.9763C0.475586 12.3946 0.753508 13.7709 1.30169 15.0668C1.831 16.3183 2.58857 17.442 3.5534 18.4068C4.51825 19.3716 5.64196 20.1292 6.89336 20.6585C8.18934 21.2067 9.56559 21.4846 10.9839 21.4846C12.4011 21.4846 13.7774 21.2067 15.0734 20.6585C16.3248 20.1292 17.4485 19.3716 18.4133 18.4068C19.3781 17.442 20.1357 16.3183 20.665 15.0668C21.2132 13.7709 21.4911 12.3946 21.4911 10.9763C21.4911 9.55742 21.2132 8.18117 20.665 6.8852H20.665ZM10.9841 20.1041C5.94283 20.1041 1.85605 16.0173 1.85605 10.976C1.85605 5.93471 5.94285 1.84789 10.9841 1.84789C16.0255 1.84789 20.1123 5.93469 20.1123 10.976C20.1123 16.0174 16.0255 20.1041 10.9841 20.1041V20.1041Z" fill="#5F5F5F"/>
    <path d="M15.3195 14.4516L15.3048 14.4369L11.8673 10.9994L14.9699 7.89687L15.3047 7.562L15.3195 7.54728C15.589 7.27775 15.589 6.84071 15.3195 6.57115C15.0499 6.3016 14.6129 6.30162 14.3434 6.57115L14.3286 6.5859H14.3286L10.8912 10.0233L7.56291 6.69504L7.43899 6.57111C7.16946 6.30157 6.73242 6.30157 6.46289 6.57111C6.19336 6.84066 6.19336 7.27768 6.46289 7.54723L6.5868 7.67115L6.81246 7.8968L9.91505 10.9994L6.5868 14.3277L6.46289 14.4516C6.19336 14.7211 6.19336 15.1582 6.46289 15.4277C6.73242 15.6973 7.16946 15.6972 7.43902 15.4277L7.56291 15.3038L7.78861 15.0781L10.8911 11.9756L13.9937 15.0781L14.3286 15.413L14.3433 15.4277C14.6128 15.6973 15.0499 15.6973 15.3194 15.4277C15.5889 15.1582 15.589 14.7211 15.3195 14.4516L15.3195 14.4516Z" fill="#5F5F5F"/>
</svg>



