<svg width="35" height="39" viewBox="0 0 35 39" xmlns="http://www.w3.org/2000/svg">
    <path d="M20.9776 16.0386C19.9101 16.0386 19.0206 16.9874 19.0206 18.1735C19.0206 19.3596 19.9101 20.3084 20.9776 20.3084C22.045 20.3084 22.9346 19.3596 22.9346 18.1735C22.9346 16.9874 22.045 16.0386 20.9776 16.0386ZM14.0391 16.0386C12.9716 16.0386 12.082 16.9874 12.082 18.1735C12.082 19.3596 12.9716 20.3084 14.0391 20.3084C15.1065 20.3084 15.9961 19.3596 15.9961 18.1735C15.9961 16.9874 15.1065 16.0386 14.0391 16.0386Z"/>
    <path d="M30.1529 0.142822H4.77097C2.57674 0.142822 0.856934 1.86263 0.856934 4.05686V29.7353C0.856934 31.8702 2.57674 33.6493 4.77097 33.6493H26.2982L25.29 30.1504L27.7215 32.404L30.0343 34.5389L34.0669 38.0971V4.05686C34.0669 1.86263 32.3471 0.142822 30.1529 0.142822ZM22.8586 24.9317C22.8586 24.9317 22.1469 24.1015 21.6132 23.3898C24.1039 22.6782 25.0528 21.1363 25.0528 21.1363C24.2818 21.67 23.5109 22.0258 22.8586 22.2631C21.9097 22.6782 21.0201 22.9154 20.1306 23.0933C18.2922 23.4491 16.6317 23.3305 15.2084 23.0933C14.1409 22.8561 13.1921 22.5596 12.4211 22.2631C12.006 22.0851 11.5316 21.9072 11.0571 21.6107C10.9978 21.5514 10.9385 21.5514 10.8792 21.4921C10.8199 21.4921 10.8199 21.4328 10.8199 21.4328C10.4641 21.2549 10.2862 21.1363 10.2862 21.1363C10.2862 21.1363 11.1758 22.6782 13.6072 23.3898C13.0142 24.1015 12.3618 24.991 12.3618 24.991C8.15127 24.8724 6.55008 22.0851 6.55008 22.0851C6.55008 15.9769 9.27804 10.9954 9.27804 10.9954C12.006 8.91975 14.6154 8.97905 14.6154 8.97905L14.7933 9.21627C11.3537 10.2244 9.75247 11.707 9.75247 11.707C9.75247 11.707 10.1676 11.4698 10.8792 11.1733C12.8956 10.2837 14.4968 10.0465 15.2084 9.98722C15.327 9.98722 15.4456 9.92791 15.5049 9.92791C16.691 9.75 17.9957 9.75 19.3596 9.86861C21.1388 10.1058 23.0958 10.5803 25.0528 11.707C25.0528 11.707 23.5702 10.2837 20.3085 9.27557L20.5457 8.97905C20.5457 8.97905 23.1551 8.91975 25.883 10.9954C25.883 10.9954 28.611 15.9769 28.611 22.0851C28.6703 22.0258 27.0691 24.8131 22.8586 24.9317Z"/>
</svg>
