<svg width="14" height="13" viewBox="0 0 14 13" fill="none" xmlns="http://www.w3.org/2000/svg">
    <mask id="path-1-inside-1_1893_630" fill="white">
        <path fill-rule="evenodd" clip-rule="evenodd" d="M6.27282 8.859V1.09086C6.27282 0.946201 6.33029 0.807463 6.43258 0.70517C6.53487 0.602878 6.67361 0.54541 6.81828 0.54541C6.96294 0.54541 7.10168 0.602878 7.20397 0.70517C7.30626 0.807463 7.36373 0.946201 7.36373 1.09086V8.9063L10.3129 5.95625C10.3636 5.90558 10.4237 5.86539 10.4899 5.83796C10.5561 5.81053 10.627 5.7964 10.6986 5.79639C10.7703 5.79637 10.8412 5.81046 10.9074 5.83786C10.9736 5.86526 11.0337 5.90543 11.0844 5.95607C11.1351 6.00671 11.1753 6.06684 11.2027 6.13301C11.2301 6.19919 11.2442 6.27012 11.2443 6.34176C11.2443 6.41339 11.2302 6.48433 11.2028 6.55052C11.1754 6.61671 11.1352 6.67686 11.0846 6.72752L7.31686 10.4963C7.29465 10.5323 7.26827 10.5657 7.23821 10.5958C7.18664 10.6473 7.12527 10.688 7.05771 10.7154C6.99016 10.7428 6.91779 10.7564 6.84489 10.7554C6.77199 10.7543 6.70004 10.7387 6.63329 10.7094C6.58073 10.6863 6.53224 10.6551 6.48955 10.617C6.46955 10.6019 6.45051 10.5854 6.43258 10.5675C6.41588 10.5508 6.40037 10.5331 6.38611 10.5146L2.59915 6.72833C2.4969 6.62605 2.43945 6.48733 2.43945 6.3427C2.43945 6.19806 2.4969 6.05935 2.59915 5.95706V5.95633C2.70144 5.85408 2.84016 5.79663 2.98479 5.79663C3.12943 5.79663 3.26814 5.85408 3.37043 5.95633L6.27282 8.859ZM0.98349 11.7961C0.881198 11.8984 0.82373 12.0371 0.82373 12.1818C0.82373 12.3264 0.881198 12.4652 0.98349 12.5675C1.08578 12.6698 1.22452 12.7272 1.36918 12.7272H12.6419C12.7866 12.7272 12.9253 12.6698 13.0276 12.5675C13.1299 12.4652 13.1874 12.3264 13.1874 12.1818C13.1874 12.0371 13.1299 11.8984 13.0276 11.7961C12.9253 11.6938 12.7866 11.6363 12.6419 11.6363H1.36918C1.22452 11.6363 1.08578 11.6938 0.98349 11.7961Z"/>
    </mask>
    <path fill-rule="evenodd" clip-rule="evenodd" d="M6.27282 8.859V1.09086C6.27282 0.946201 6.33029 0.807463 6.43258 0.70517C6.53487 0.602878 6.67361 0.54541 6.81828 0.54541C6.96294 0.54541 7.10168 0.602878 7.20397 0.70517C7.30626 0.807463 7.36373 0.946201 7.36373 1.09086V8.9063L10.3129 5.95625C10.3636 5.90558 10.4237 5.86539 10.4899 5.83796C10.5561 5.81053 10.627 5.7964 10.6986 5.79639C10.7703 5.79637 10.8412 5.81046 10.9074 5.83786C10.9736 5.86526 11.0337 5.90543 11.0844 5.95607C11.1351 6.00671 11.1753 6.06684 11.2027 6.13301C11.2301 6.19919 11.2442 6.27012 11.2443 6.34176C11.2443 6.41339 11.2302 6.48433 11.2028 6.55052C11.1754 6.61671 11.1352 6.67686 11.0846 6.72752L7.31686 10.4963C7.29465 10.5323 7.26827 10.5657 7.23821 10.5958C7.18664 10.6473 7.12527 10.688 7.05771 10.7154C6.99016 10.7428 6.91779 10.7564 6.84489 10.7554C6.77199 10.7543 6.70004 10.7387 6.63329 10.7094C6.58073 10.6863 6.53224 10.6551 6.48955 10.617C6.46955 10.6019 6.45051 10.5854 6.43258 10.5675C6.41588 10.5508 6.40037 10.5331 6.38611 10.5146L2.59915 6.72833C2.4969 6.62605 2.43945 6.48733 2.43945 6.3427C2.43945 6.19806 2.4969 6.05935 2.59915 5.95706V5.95633C2.70144 5.85408 2.84016 5.79663 2.98479 5.79663C3.12943 5.79663 3.26814 5.85408 3.37043 5.95633L6.27282 8.859ZM0.98349 11.7961C0.881198 11.8984 0.82373 12.0371 0.82373 12.1818C0.82373 12.3264 0.881198 12.4652 0.98349 12.5675C1.08578 12.6698 1.22452 12.7272 1.36918 12.7272H12.6419C12.7866 12.7272 12.9253 12.6698 13.0276 12.5675C13.1299 12.4652 13.1874 12.3264 13.1874 12.1818C13.1874 12.0371 13.1299 11.8984 13.0276 11.7961C12.9253 11.6938 12.7866 11.6363 12.6419 11.6363H1.36918C1.22452 11.6363 1.08578 11.6938 0.98349 11.7961Z" fill="white"/>
    <path d="M6.27282 8.859L3.44426 11.6873L10.2728 18.5165V8.859H6.27282ZM6.43258 0.70517L9.26101 3.5336L6.43258 0.70517ZM7.20397 0.70517L4.37554 3.5336L7.20397 0.70517ZM7.36373 8.9063H3.36373V18.5651L10.1926 11.7343L7.36373 8.9063ZM10.3129 5.95625L13.1418 8.78428L13.142 8.784L10.3129 5.95625ZM11.0844 5.95607L13.9122 3.12699L13.9121 3.12696L11.0844 5.95607ZM11.0846 6.72752L13.9134 9.55555L13.9137 9.55527L11.0846 6.72752ZM7.31686 10.4963L4.48803 7.66828L4.15765 7.99875L3.91235 8.39647L7.31686 10.4963ZM7.23821 10.5958L4.41043 7.76668L4.41042 7.76669L7.23821 10.5958ZM7.05771 10.7154L5.55359 7.00896L5.55354 7.00898L7.05771 10.7154ZM6.84489 10.7554L6.90151 6.75577L6.90145 6.75577L6.84489 10.7554ZM6.63329 10.7094L8.24164 7.04699L8.2416 7.04697L6.63329 10.7094ZM6.48955 10.617L9.15197 7.63183L9.03035 7.52336L8.9003 7.42514L6.48955 10.617ZM6.43258 10.5675L3.60411 13.3959L3.60412 13.3959L6.43258 10.5675ZM6.38611 10.5146L9.55525 8.07397L9.39732 7.86889L9.21427 7.68588L6.38611 10.5146ZM2.59915 6.72833L-0.229699 9.55633L-0.229005 9.55703L2.59915 6.72833ZM2.59915 5.95706L5.42801 8.78506L6.59915 7.61356V5.95706H2.59915ZM2.59915 5.95633L-0.228842 3.12748L-1.40085 4.29912V5.95633H2.59915ZM3.37043 5.95633L6.19899 3.12804L6.19843 3.12748L3.37043 5.95633ZM0.98349 11.7961L-1.84493 8.96764L-1.84494 8.96766L0.98349 11.7961ZM0.98349 12.5675L3.81192 9.73905L3.81191 9.73903L0.98349 12.5675ZM13.0276 12.5675L10.1992 9.73903L10.1992 9.73904L13.0276 12.5675ZM13.0276 11.7961L15.856 8.96765L15.856 8.96764L13.0276 11.7961ZM10.2728 8.859V1.09086H2.27282V8.859H10.2728ZM10.2728 1.09086C10.2728 2.00706 9.90887 2.88574 9.26101 3.5336L3.60415 -2.12326C2.75171 -1.27081 2.27282 -0.114658 2.27282 1.09086H10.2728ZM9.26101 3.5336C8.61315 4.18145 7.73448 4.54541 6.81828 4.54541V-3.45459C5.61275 -3.45459 4.45659 -2.9757 3.60415 -2.12326L9.26101 3.5336ZM6.81828 4.54541C5.90207 4.54541 5.0234 4.18145 4.37554 3.5336L10.0324 -2.12326C9.17996 -2.97569 8.02381 -3.45459 6.81828 -3.45459V4.54541ZM4.37554 3.5336C3.72769 2.88574 3.36373 2.00706 3.36373 1.09086H11.3637C11.3637 -0.114658 10.8848 -1.27081 10.0324 -2.12326L4.37554 3.5336ZM3.36373 1.09086V8.9063H11.3637V1.09086H3.36373ZM10.1926 11.7343L13.1418 8.78428L7.48411 3.12822L4.5349 6.07827L10.1926 11.7343ZM13.142 8.784C12.8213 9.10488 12.4405 9.35942 12.0215 9.53311L8.95827 2.14281C8.40687 2.37136 7.90585 2.70629 7.48383 3.1285L13.142 8.784ZM12.0215 9.53311C11.6024 9.70682 11.1532 9.79628 10.6996 9.79639L10.6977 1.79639C10.1008 1.79653 9.5097 1.91424 8.95827 2.14281L12.0215 9.53311ZM10.6996 9.79639C10.2459 9.79649 9.79671 9.70725 9.37752 9.53374L12.4373 2.14199C11.8857 1.91367 11.2946 1.79625 10.6977 1.79639L10.6996 9.79639ZM9.37752 9.53374C8.95835 9.36022 8.57748 9.10586 8.25665 8.78518L13.9121 3.12696C13.49 2.705 12.9888 2.3703 12.4373 2.14199L9.37752 9.53374ZM8.25662 8.78515C7.9358 8.46448 7.68124 8.08373 7.50753 7.66462L14.8978 4.60141C14.6693 4.04995 14.3343 3.54895 13.9122 3.12699L8.25662 8.78515ZM7.50753 7.66462C7.33382 7.24552 7.24437 6.79634 7.24426 6.34272L15.2443 6.3408C15.2441 5.74391 15.1264 5.15286 14.8978 4.60141L7.50753 7.66462ZM7.24426 6.34272C7.24415 5.88904 7.3334 5.43982 7.5069 5.02068L14.8987 8.08037C15.127 7.52885 15.2444 6.93775 15.2443 6.3408L7.24426 6.34272ZM7.5069 5.02068C7.68042 4.60148 7.93479 4.22061 8.25547 3.89978L13.9137 9.55527C14.3356 9.13311 14.6704 8.63194 14.8987 8.08037L7.5069 5.02068ZM8.25575 3.8995L4.48803 7.66828L10.1457 13.3243L13.9134 9.55555L8.25575 3.8995ZM3.91235 8.39647C4.053 8.16843 4.22004 7.95698 4.41043 7.76668L10.066 13.4248C10.3165 13.1744 10.5363 12.8962 10.7214 12.5962L3.91235 8.39647ZM4.41042 7.76669C4.73703 7.44023 5.12575 7.18259 5.55359 7.00896L8.56184 14.4218C9.12479 14.1934 9.63626 13.8544 10.066 13.4248L4.41042 7.76669ZM5.55354 7.00898C5.98142 6.83533 6.43978 6.74923 6.90151 6.75577L6.78828 14.755C7.3958 14.7636 7.99889 14.6503 8.56189 14.4218L5.55354 7.00898ZM6.90145 6.75577C7.36313 6.7623 7.81885 6.86131 8.24164 7.04699L5.02493 14.3718C5.58123 14.6161 6.18085 14.7464 6.78833 14.755L6.90145 6.75577ZM8.2416 7.04697C8.57444 7.19313 8.88157 7.39067 9.15197 7.63183L3.82712 13.6023C4.18291 13.9196 4.58702 14.1795 5.02497 14.3718L8.2416 7.04697ZM8.9003 7.42514C9.02702 7.52084 9.14763 7.62566 9.26105 7.73908L3.60412 13.3959C3.75338 13.5451 3.91208 13.683 4.0788 13.809L8.9003 7.42514ZM9.26105 7.73908C9.36667 7.8447 9.46488 7.95662 9.55525 8.07397L3.21697 12.9552C3.33585 13.1095 3.46509 13.2568 3.60411 13.3959L9.26105 7.73908ZM9.21427 7.68588L5.42731 3.89964L-0.229005 9.55703L3.55795 13.3433L9.21427 7.68588ZM5.42801 3.90033C6.07564 4.54816 6.43945 5.42668 6.43945 6.3427H-1.56055C-1.56055 7.54799 -1.08184 8.70393 -0.229699 9.55633L5.42801 3.90033ZM6.43945 6.3427C6.43945 7.25871 6.07564 8.13723 5.42801 8.78506L-0.229699 3.12906C-1.08184 3.98146 -1.56055 5.13741 -1.56055 6.3427H6.43945ZM6.59915 5.95706V5.95633H-1.40085V5.95706H6.59915ZM5.42715 8.78519C4.77933 9.43281 3.90082 9.79663 2.98479 9.79663V1.79663C1.77949 1.79663 0.623551 2.27534 -0.228842 3.12748L5.42715 8.78519ZM2.98479 9.79663C2.06876 9.79663 1.19025 9.43281 0.542429 8.78519L6.19843 3.12748C5.34603 2.27534 4.19009 1.79663 2.98479 1.79663V9.79663ZM0.541867 8.78463L3.44426 11.6873L9.10138 6.03071L6.19899 3.12804L0.541867 8.78463ZM4.82373 12.1818C4.82373 13.098 4.45977 13.9767 3.81192 14.6245L-1.84494 8.96766C-2.69737 9.82009 -3.17627 10.9762 -3.17627 12.1818H4.82373ZM3.81191 9.73903C4.45977 10.3869 4.82373 11.2656 4.82373 12.1818H-3.17627C-3.17627 13.3873 -2.69738 14.5435 -1.84493 15.3959L3.81191 9.73903ZM1.36918 8.72723C2.28537 8.72723 3.16406 9.09118 3.81192 9.73905L-1.84494 15.3959C-0.992492 16.2483 0.16367 16.7272 1.36918 16.7272V8.72723ZM12.6419 8.72723H1.36918V16.7272H12.6419V8.72723ZM10.1992 9.73904C10.847 9.09118 11.7257 8.72723 12.6419 8.72723V16.7272C13.8474 16.7272 15.0036 16.2483 15.856 15.3959L10.1992 9.73904ZM9.18737 12.1818C9.18737 11.2656 9.55133 10.3869 10.1992 9.73903L15.856 15.3959C16.7085 14.5435 17.1874 13.3873 17.1874 12.1818H9.18737ZM10.1992 14.6245C9.55133 13.9767 9.18737 13.098 9.18737 12.1818H17.1874C17.1874 10.9762 16.7085 9.82009 15.856 8.96765L10.1992 14.6245ZM12.6419 15.6363C11.7257 15.6363 10.847 15.2724 10.1992 14.6245L15.856 8.96764C15.0036 8.11522 13.8475 7.63632 12.6419 7.63632V15.6363ZM1.36918 15.6363H12.6419V7.63632H1.36918V15.6363ZM3.81191 14.6245C3.16406 15.2724 2.28539 15.6363 1.36918 15.6363V7.63632C0.163654 7.63632 -0.992496 8.11521 -1.84493 8.96764L3.81191 14.6245Z" fill="white" mask="url(#path-1-inside-1_1893_630)"/>
</svg>




