<?xml version="1.0" encoding="utf-8"?>
<!-- Generator: Adobe Illustrator 21.0.0, SVG Export Plug-In . SVG Version: 6.00 Build 0)  -->
<svg version="1.1" id="图层_1" xmlns="http://www.w3.org/2000/svg" xmlns:xlink="http://www.w3.org/1999/xlink" x="0px" y="0px"
     viewBox="0 0 451.2 548.4" style="enable-background:new 0 0 451.2 548.4;" xml:space="preserve">
    <g>
	<path class="st0" d="M286.5,96.3c-19.4-6.8-39.7-10.6-60.2-11.2c-2.2-0.1-4.4-0.1-6.6-0.1c-13.2,0-26.3,1.5-39.2,4.3
		C125.7,101.7,85,140.1,65,196.9c-19,59.2-3.7,124,39.7,168.5c54.7,56.1,146.8,71.9,205.7,13c0,0,0,0,0,0
		c50.1-50.1,50.1-131.3,0-181.4c0,0,0,0,0,0c-49.4-49.4-106.3-45.6-164.7-15.3l-3.6,1.9l3,93.4c0,0,0,0,0,0l1.8,56.5l1.9,1.8
		c15.3,14.8,31.7,19.8,47,23.1l-2.2-140.6c33.4-10.9,68.3-3.9,90.3,25.4c0,0,0,0,0,0c18.5,24.8,21.2,58,6.8,85.4
		c-30.4,58.2-117.7,55-160.1,11.6C109.9,319,97,291.5,94,262c-5.9-55.8,24.3-109.2,75.1-133l7.5-2.2c14.1-3.8,28.6-5.7,43.2-5.6v0
		c92-0.1,166.5,74.4,166.6,166.4c0,27.6-6.8,54.8-19.9,79.1c-7.7,14.3-17.4,27.3-28.9,38.8c-53.8,53.8-137.2,63-203.9,28.4
		c-82.4-42.7-114-138.7-86.1-225.1c1.8-5.5-1-11.5-6.3-13.7l-1.6-0.7l-2.6,5.5c-2.9,6.1-5.5,12.3-7.8,18.7
		C-9,324.1,45.5,440.4,150.9,478.5c0.6,0.2,1.3,0.5,1.9,0.7c105.7,36.9,221.3-18.9,258.3-124.6C448,248.8,392.2,133.2,286.5,96.3z"
    />
        <path class="st0" d="M195.8,358.3C195.8,358.3,195.8,358.3,195.8,358.3L195.8,358.3L195.8,358.3z"/>
</g>
</svg>