<svg width="184" height="180" viewBox="0 0 184 180" fill="none" xmlns="http://www.w3.org/2000/svg">
    <path d="M57.2352 163V177H58.8352V165.64L67.2352 177H68.8752V163H67.2952V174.38L58.8952 163H57.2352ZM77.1937 166.42C74.0537 166.42 71.8537 168.6 71.8537 171.72C71.8537 174.86 74.0537 177.06 77.1937 177.06C80.3137 177.06 82.5337 174.86 82.5337 171.72C82.5337 168.6 80.3137 166.42 77.1937 166.42ZM77.1937 167.8C79.3937 167.8 80.9737 169.42 80.9737 171.74C80.9737 174.1 79.3937 175.7 77.1937 175.7C74.9737 175.7 73.4137 174.1 73.4137 171.74C73.4137 169.42 74.9737 167.8 77.1937 167.8ZM99.393 162.16V168.76C98.613 167.26 97.153 166.4 95.273 166.4C92.293 166.4 90.213 168.58 90.213 171.72C90.213 174.86 92.293 177.08 95.293 177.08C97.173 177.08 98.613 176.22 99.393 174.74V177H100.953V162.16H99.393ZM95.593 175.74C93.353 175.74 91.773 174.08 91.773 171.76C91.773 169.44 93.353 167.76 95.593 167.76C97.813 167.76 99.393 169.44 99.393 171.76C99.393 174.08 97.813 175.74 95.593 175.74ZM112.907 177L112.887 170.04C112.867 167.8 111.427 166.42 108.827 166.42C107.027 166.42 105.887 166.94 104.527 167.84L105.187 168.94C106.287 168.16 107.367 167.72 108.527 167.72C110.387 167.72 111.347 168.66 111.347 170.2V170.86H107.887C105.407 170.88 103.947 172.04 103.947 173.88C103.947 175.68 105.347 177.06 107.527 177.06C109.207 177.06 110.547 176.5 111.387 175.36V177H112.907ZM107.827 175.76C106.347 175.76 105.407 174.98 105.407 173.82C105.407 172.64 106.327 172.1 108.087 172.1H111.367V173.38C110.967 174.88 109.607 175.76 107.827 175.76ZM121.39 175.08C120.81 175.42 120.25 175.6 119.71 175.62C118.81 175.62 118.31 175.1 118.31 173.82V168.02H121.65V166.8H118.31V164.04H116.77V166.8H115.25V168.02H116.77V174.08C116.77 176.16 117.91 177.08 119.45 177.06C120.29 177.06 121.09 176.78 121.83 176.28L121.39 175.08ZM128.187 166.42C125.127 166.44 122.967 168.6 122.967 171.74C122.967 174.88 125.107 177.06 128.207 177.06C129.967 177.06 131.447 176.42 132.447 175.32L131.587 174.42C130.767 175.28 129.627 175.76 128.327 175.76C126.267 175.76 124.767 174.4 124.507 172.32H133.107C133.267 168.76 131.587 166.42 128.187 166.42ZM124.507 171.08C124.727 169.04 126.167 167.72 128.187 167.72C130.247 167.72 131.607 169.04 131.707 171.08H124.507Z" fill="#888A8A"/>
    <path d="M157.225 26.8572L154.91 25.5221L153.575 23.2075C153.416 22.9308 153.017 22.9308 152.857 23.2075L151.522 25.5221L149.207 26.8572C148.931 27.0162 148.931 27.4152 149.207 27.5751L151.522 28.9093L152.857 31.2239C153.016 31.5005 153.415 31.5005 153.575 31.2239L154.91 28.9093L157.225 27.5751C157.5 27.4152 157.5 27.0162 157.225 26.8572Z" fill="#646464"/>
    <path d="M32.5144 114.4L29.2737 112.531L27.4044 109.29C27.1817 108.903 26.6232 108.903 26.3992 109.29L24.5312 112.531L21.2905 114.4C20.9032 114.623 20.9032 115.181 21.2905 115.405L24.5312 117.273L26.3992 120.513C26.6219 120.901 27.1804 120.901 27.4044 120.513L29.2737 117.273L32.5144 115.405C32.9004 115.181 32.9004 114.623 32.5144 114.4Z" fill="#646464"/>
    <path d="M132.619 78.7496L50.6572 78.5066L59.1107 26.9009L124.473 27.0971L132.619 78.7496Z" fill="url(#paint0_linear_1891_805)"/>
    <path d="M60.2946 78.3684L50.3765 78.5289L58.9927 26.999L67.3369 42.1225L60.2946 78.3684Z" fill="url(#paint1_linear_1891_805)"/>
    <path d="M123.127 78.3684L133.047 78.5289L124.431 26.999L116.359 42.1225L123.127 78.3684Z" fill="url(#paint2_linear_1891_805)"/>
    <path d="M137.976 111.223H45.4586C42.9952 111.223 41 109.228 41 106.765V78.6289H142.435V106.765C142.435 109.228 140.437 111.223 137.976 111.223Z" fill="url(#paint3_linear_1891_805)"/>
    <path d="M113.389 94.0651H69.5215L64.7441 78.3687H64.7285V82.2788H64.7441L69.5215 97.9775H113.389L118.169 82.2788H118.185V78.3687H118.169L113.389 94.0651Z" fill="url(#paint4_linear_1891_805)"/>
    <path d="M122.877 78.3687L116.232 42.203L67.2787 42.0425L60.5552 78.1079L64.8867 78.1257L69.6373 94.21H113.505L118.144 78.3486L122.877 78.3687Z" fill="url(#paint5_linear_1891_805)"/>
    <path d="M118.106 82.2786H137.604C140.537 82.2786 142.767 79.6391 142.274 76.7455L133.457 24.9414C133.069 22.6653 131.096 21 128.787 21H54.6474C52.3379 21 50.365 22.6653 49.9771 24.9414L41.1603 76.7455C40.6676 79.6369 42.8969 82.2786 45.8306 82.2786H64.4875L64.6413 78.2859L56.228 78.2614C53.3076 78.2525 51.0917 75.6309 51.5688 72.7506L58.4528 31.1366C58.8318 28.8449 60.8181 27.1662 63.141 27.1729L120.443 27.3423C122.765 27.349 124.741 29.0388 125.106 31.335L131.743 72.9891C132.202 75.8716 129.97 78.4799 127.05 78.471L117.794 78.4442L118.106 82.2786Z" fill="url(#paint6_linear_1891_805)"/>
    <path d="M82.2264 37.0151L84.342 42.8759L90.2028 44.9915L84.342 47.1071L82.2264 52.9679L80.1108 47.1071L74.25 44.9915L80.1108 42.8759L82.2264 37.0151Z" fill="#737373"/>
    <path d="M106.971 50.7695L108.543 55.1255L112.899 56.6972L108.543 58.2688L106.971 62.6249L105.399 58.2688L101.043 56.6972L105.399 55.1255L106.971 50.7695Z" fill="#737373"/>
    <path d="M91.0609 63.6973L92.0329 66.3902L94.7259 67.3622L92.0329 68.3342L91.0609 71.0272L90.089 68.3342L87.396 67.3622L90.089 66.3902L91.0609 63.6973Z" fill="#737373"/>
    <defs>
        <linearGradient id="paint0_linear_1891_805" x1="91.6382" y1="24.0845" x2="91.6382" y2="66.8416" gradientUnits="userSpaceOnUse">
            <stop stop-color="#545454"/>
            <stop offset="0.8751" stop-color="#383838"/>
        </linearGradient>
        <linearGradient id="paint1_linear_1891_805" x1="50.3757" y1="52.7598" x2="67.3363" y2="52.7594" gradientUnits="userSpaceOnUse">
            <stop stop-color="#666666"/>
            <stop offset="0.8751" stop-color="#383838"/>
        </linearGradient>
        <linearGradient id="paint2_linear_1891_805" x1="133.047" y1="52.7598" x2="116.358" y2="52.7595" gradientUnits="userSpaceOnUse">
            <stop stop-color="#666666"/>
            <stop offset="0.901042" stop-color="#383838"/>
        </linearGradient>
        <linearGradient id="paint3_linear_1891_805" x1="91.7167" y1="83.105" x2="91.7167" y2="114.887" gradientUnits="userSpaceOnUse">
            <stop stop-color="#4F4F4F"/>
            <stop offset="1" stop-color="#383838"/>
        </linearGradient>
        <linearGradient id="paint4_linear_1891_805" x1="64.7284" y1="88.1726" x2="118.184" y2="88.1726" gradientUnits="userSpaceOnUse">
            <stop stop-color="#757575"/>
            <stop offset="1" stop-color="#757575"/>
        </linearGradient>
        <linearGradient id="paint5_linear_1891_805" x1="91.7166" y1="46.0516" x2="91.7166" y2="94.6309" gradientUnits="userSpaceOnUse">
            <stop stop-color="#616161"/>
            <stop offset="0.8519" stop-color="#383838"/>
        </linearGradient>
        <linearGradient id="paint6_linear_1891_805" x1="91.7165" y1="11.7738" x2="91.7165" y2="77.4994" gradientUnits="userSpaceOnUse">
            <stop stop-color="#242424"/>
            <stop offset="1" stop-color="#696969"/>
        </linearGradient>
    </defs>
</svg>


