<svg width="20" height="20" viewBox="0 0 20 20"  xmlns="http://www.w3.org/2000/svg">
    <path d="M10 0.25C4.475 0.25 1.45954e-06 4.725 1.45954e-06 10.25C-0.00113276 12.3493 0.658815 14.3956 1.88622 16.0987C3.11362 17.8017 4.84615 19.0751 6.838 19.738C7.338 19.825 7.525 19.525 7.525 19.262C7.525 19.025 7.512 18.238 7.512 17.4C5 17.863 4.35 16.788 4.15 16.225C4.037 15.937 3.55 15.05 3.125 14.812C2.775 14.625 2.275 14.162 3.112 14.15C3.9 14.137 4.462 14.875 4.65 15.175C5.55 16.687 6.988 16.262 7.562 16C7.65 15.35 7.912 14.913 8.2 14.663C5.975 14.413 3.65 13.55 3.65 9.725C3.65 8.637 4.037 7.738 4.675 7.037C4.575 6.787 4.225 5.762 4.775 4.387C4.775 4.387 5.612 4.125 7.525 5.413C8.33906 5.18706 9.18017 5.07334 10.025 5.075C10.875 5.075 11.725 5.187 12.525 5.412C14.437 4.112 15.275 4.388 15.275 4.388C15.825 5.763 15.475 6.788 15.375 7.038C16.012 7.738 16.4 8.625 16.4 9.725C16.4 13.563 14.063 14.413 11.838 14.663C12.2 14.975 12.513 15.575 12.513 16.513C12.513 17.85 12.5 18.925 12.5 19.263C12.5 19.525 12.688 19.837 13.188 19.737C15.173 19.0668 16.8979 17.791 18.1199 16.0892C19.3419 14.3873 19.9994 12.3451 20 10.25C20 4.725 15.525 0.25 10 0.25Z"
    />
</svg>


