<svg width="16" height="16" viewBox="0 0 16 16" fill="none" xmlns="http://www.w3.org/2000/svg">
    <path fill-rule="evenodd" clip-rule="evenodd" d="M12.6403 6.62236C12.6403 6.06312 12.0201 5.62589 11.4608 5.62589L11.4608 5.61572L10.2712 5.61572L10.2712 4.12102L12.3556 4.12102C13.2809 4.12102 13.8402 4.98531 13.8402 5.92076L13.8402 11.5335C13.8402 12.469 13.2301 13.3333 12.3048 13.3333L2.90954 13.3333C1.98425 13.3333 1.3335 12.469 1.3335 11.5335L1.3335 5.93093C1.3335 4.99547 1.89274 4.13119 2.81803 4.13119L4.90247 4.13119L4.90247 5.62589L3.71281 5.62589C3.15357 5.62589 2.52315 5.96144 2.52315 6.52068L2.52315 8.83899L12.6505 8.83899L12.6403 6.62236ZM6.52322 1.52276C6.94956 0.95025 7.33433 0.433568 7.38347 0.348688C7.48515 0.175832 7.72918 0.175832 7.83086 0.358856C7.92103 0.505373 8.52338 1.31712 9.05809 2.03769C9.48819 2.6173 9.87451 3.13791 9.91531 3.2059C10.0272 3.3991 9.8848 3.59229 9.69161 3.59229L9.08153 3.59229L9.08153 6.23597C9.08153 6.61219 8.55279 6.83588 8.18674 6.83588L6.99708 6.83588C6.62087 6.83588 6.1023 6.61219 6.1023 6.23597L6.1023 3.59229L5.52272 3.59229C5.30919 3.59229 5.20751 3.36859 5.29902 3.2059C5.36743 3.07479 5.97917 2.25332 6.52322 1.52276Z" fill="#1BB16A"/>
</svg>

