<svg width="42" height="34" viewBox="0 0 42 34" xmlns="http://www.w3.org/2000/svg">
    <path d="M41.324 4.31198C39.7971 4.98736 38.1779 5.43092 36.52 5.62798C38.2675 4.58284 39.5754 2.938 40.2 0.999975C38.56 1.97598 36.762 2.65998 34.888 3.02998C33.6292 1.68313 31.9607 0.789902 30.1419 0.489145C28.3231 0.188388 26.4559 0.496957 24.8305 1.36688C23.2052 2.23681 21.9128 3.61934 21.1542 5.29956C20.3957 6.97978 20.2135 8.86354 20.636 10.658C17.3102 10.4913 14.0566 9.62702 11.0866 8.1213C8.11647 6.61559 5.49624 4.50207 3.39598 1.91798C2.65256 3.19488 2.26189 4.64643 2.26398 6.12398C2.26398 9.02398 3.73998 11.586 5.98398 13.086C4.656 13.0442 3.35725 12.6855 2.19598 12.04V12.144C2.19638 14.0754 2.86472 15.9472 4.08768 17.4421C5.31064 18.937 7.01295 19.9629 8.90598 20.346C7.67321 20.6801 6.3806 20.7293 5.12598 20.49C5.65972 22.1524 6.7 23.6064 8.10117 24.6482C9.50234 25.69 11.1942 26.2676 12.94 26.3C11.2049 27.6626 9.21834 28.6699 7.09374 29.2643C4.96915 29.8587 2.74824 30.0285 0.557983 29.764C4.38138 32.2228 8.83218 33.5282 13.378 33.524C28.764 33.524 37.178 20.778 37.178 9.72398C37.178 9.36398 37.168 8.99998 37.152 8.64398C38.7897 7.46031 40.2032 5.99401 41.326 4.31398L41.324 4.31198Z"/>
</svg>


