<svg width="18" height="16" viewBox="0 0 18 16" fill="none" xmlns="http://www.w3.org/2000/svg">
    <path d="M0.666504 5.5H16.4998C16.7208 5.5 16.9328 5.5878 17.0891 5.74408C17.2454 5.90036 17.3332 6.11232 17.3332 6.33333V14.6667C17.3332 14.8877 17.2454 15.0996 17.0891 15.2559C16.9328 15.4122 16.7208 15.5 16.4998 15.5H1.49984C1.27882 15.5 1.06686 15.4122 0.910582 15.2559C0.754301 15.0996 0.666504 14.8877 0.666504 14.6667V5.5ZM1.49984 0.5H13.9998V3.83333H0.666504V1.33333C0.666504 1.11232 0.754301 0.900358 0.910582 0.744078C1.06686 0.587797 1.27882 0.5 1.49984 0.5ZM11.4998 9.66667V11.3333H13.9998V9.66667H11.4998Z" fill="url(#paint0_linear_2131_616)"/>
    <defs>
        <linearGradient id="paint0_linear_2131_616" x1="0.528763" y1="7.59459" x2="15.9168" y2="7.42812" gradientUnits="userSpaceOnUse">
            <stop stop-color="#00C34D"/>
            <stop offset="1" stop-color="#00A854"/>
        </linearGradient>
    </defs>
</svg>
